<svg width="83" height="18" viewBox="0 0 83 18" fill="none" xmlns="http://www.w3.org/2000/svg">
<path fill-rule="evenodd" clip-rule="evenodd" d="M9.1226 18L9.10234 17.9698L9.08166 18V17.94L0 4.63325L9.08166 0.0206749V0L9.10234 0.0103375L9.1226 0V0.0206749L18.2043 4.63325L9.1226 17.94V18ZM9.16354 5.80883L2.45453 4.33346L3.55898 5.40236C3.55898 5.40236 8.50897 5.0728 9.16354 8.54991C9.49103 5.03186 14.8909 5.40236 14.8909 5.40236L15.9954 4.33346L9.16354 5.80883ZM4.67543 5.9552C4.20486 5.8907 3.88647 5.8907 3.88647 5.8907L4.3897 6.37987L4.67543 5.9552ZM4.68494 6.66683L5.11415 6.02798C5.25102 6.05486 5.39491 6.08711 5.54253 6.12557L4.98266 6.9567L4.68494 6.66683ZM8.53213 8.63509C8.59332 8.80462 8.64336 8.9754 8.68512 9.14286L7.76881 10.5033C7.75516 10.3242 7.72994 10.1187 7.68445 9.89791L8.53213 8.63509ZM7.81347 11.1682L7.78328 11.1454V12.0113L8.86541 10.4049C8.85465 10.2031 8.83439 9.96449 8.79552 9.70522L7.81347 11.1682ZM8.87698 11.1078L7.78328 12.7378V13.5582L8.87698 11.9344V11.1078ZM7.78328 15.0931V14.2872L8.87698 12.6576V13.4689L7.78328 15.0931ZM8.04626 15.4231L8.40146 15.7547L8.87698 15.048V14.1855L8.04626 15.4231ZM8.87698 16.1996L8.70001 16.0338L8.87698 15.77V16.1996ZM8.34398 8.1914C8.27162 8.04502 8.18975 7.90237 8.09671 7.7655L7.3396 8.89394C7.42147 9.05727 7.48846 9.2206 7.54345 9.38021L8.34398 8.1914ZM7.47316 7.06834C7.60134 7.17833 7.72208 7.29825 7.83373 7.42933L7.11134 8.50153C7.0274 8.37541 6.93271 8.25095 6.82603 8.12897C6.81404 8.11491 6.80163 8.10085 6.78923 8.0872L7.47316 7.06834ZM7.15021 6.82272C7.02947 6.74044 6.9046 6.66559 6.77724 6.59778L6.15988 7.5174C6.26864 7.59555 6.38193 7.68611 6.4973 7.79196L7.15021 6.82272ZM5.94983 6.24589C6.10158 6.29634 6.2554 6.35382 6.40798 6.41998L5.8142 7.30156C5.64177 7.20893 5.4896 7.14939 5.36886 7.11135L5.94983 6.24589ZM14.441 5.8907C14.441 5.8907 14.1222 5.8907 13.6516 5.9552L13.9378 6.37987L14.441 5.8907ZM13.2133 6.02798L13.6421 6.66683L13.3444 6.9567L12.7845 6.12557C12.9322 6.08711 13.0761 6.05486 13.2133 6.02798ZM9.64237 9.14286C9.68372 8.9754 9.73375 8.80462 9.79495 8.63509L10.6426 9.89791C10.5971 10.1187 10.5719 10.3242 10.5583 10.5033L9.64237 9.14286ZM10.5438 11.1454L10.5136 11.1682L9.53155 9.70522C9.49268 9.96449 9.47242 10.2031 9.46167 10.4049L10.5438 12.0113V11.1454ZM10.5438 12.7378L9.45009 11.1078V11.9344L10.5438 13.5582V12.7378ZM10.5438 14.2872V15.0931L9.45009 13.4689V12.6576L10.5438 14.2872ZM9.92561 15.7551L10.2808 15.4231L9.45009 14.1855V15.048L9.92561 15.7551ZM9.62707 16.0338L9.45009 16.1996V15.77L9.62707 16.0338ZM10.2304 7.76591C10.1373 7.90237 10.0555 8.04502 9.98309 8.1914L10.784 9.38021C10.8386 9.2206 10.9056 9.05727 10.9875 8.89394L10.2304 7.76591ZM10.4933 7.42933C10.605 7.29825 10.7257 7.17833 10.8539 7.06834L11.5378 8.0872C11.5254 8.10126 11.513 8.11491 11.501 8.12897C11.3948 8.25095 11.3001 8.37541 11.2157 8.50153L10.4933 7.42933ZM11.5498 6.59778C11.4229 6.66559 11.2976 6.74044 11.1769 6.82272L11.8298 7.79196C11.9451 7.68611 12.0584 7.59555 12.1676 7.5174L11.5498 6.59778ZM11.9191 6.41998C12.0717 6.35382 12.2255 6.29634 12.3772 6.24589L12.9582 7.11135C12.8375 7.14939 12.6853 7.20893 12.5129 7.30156L11.9191 6.41998Z" fill="#484B52"/>
<path d="M74.7336 12.1738L75.9166 10.5459H78.1032C78.2926 10.5459 78.4692 10.5521 78.6333 10.5649C78.5767 10.4888 78.4754 10.3437 78.3302 10.1295L78.1599 9.88304L77.9895 9.64652L76.8536 7.97144L73.8818 12.1738H71.5625L75.6235 6.44728C75.9642 5.97424 76.3868 5.7373 76.8917 5.7373C77.4028 5.7373 77.8191 5.97424 78.1413 6.44728L82.0976 12.1738H74.7336Z" fill="#484B52"/>
<path d="M71.4063 12.1739H68.4436L66.532 10.5079C65.9577 10.003 65.5665 9.64987 65.3581 9.44809L65.3676 9.6751L65.3771 9.90211C65.3833 9.98439 65.3866 10.0663 65.3866 10.1481V12.1739H63.418V5.84155H65.3866V7.30865C65.3866 7.7883 65.3738 8.15756 65.3486 8.41641C65.3614 8.40359 65.4309 8.34032 65.557 8.22703L65.6798 8.11331L65.8125 7.9996C66.0396 7.79161 66.2732 7.58652 66.513 7.38432L68.3398 5.84155H71.1793L68.7562 7.65888C68.0558 8.18898 67.51 8.57726 67.1188 8.82329C67.2825 8.937 67.3838 9.00606 67.4215 9.03128L67.6013 9.16401L67.7812 9.29633C67.9135 9.39723 68.0715 9.52045 68.2547 9.66559L68.5102 9.86448L68.7848 10.082L71.4063 12.1739Z" fill="#484B52"/>
<path d="M55.821 12.278C55.5117 12.278 55.2628 12.1833 55.0734 11.9939C54.8526 11.786 54.7422 11.4829 54.7422 11.0855V5.84151H56.531V9.56134L60.4117 6.07803C60.6515 5.85102 60.9132 5.7373 61.1973 5.7373C61.4938 5.7373 61.7431 5.8291 61.9453 6.01187C62.1595 6.22027 62.267 6.52295 62.267 6.92074V12.1738H60.4873V8.45399L56.6067 11.9373C56.373 12.1643 56.1113 12.278 55.821 12.278Z" fill="#484B52"/>
<path d="M54.1689 5.84155L52.9007 7.48852H50.6384V12.1739H48.6793V7.48852H45.707L46.9752 5.84155H54.1689Z" fill="#484B52"/>
<path d="M45.6642 12.1739H42.7019L40.7898 10.5079C40.2155 10.003 39.8243 9.64987 39.6159 9.44809L39.6254 9.6751L39.6349 9.90211C39.6411 9.98439 39.6444 10.0663 39.6444 10.1481V12.1739H37.6758V5.84155H39.6444V7.30865C39.6444 7.7883 39.632 8.15756 39.6068 8.41641C39.6192 8.40359 39.6887 8.34032 39.8148 8.22703L39.938 8.11331L40.0704 7.9996C40.2974 7.79161 40.531 7.58652 40.7708 7.38432L42.5977 5.84155H45.4371L43.014 7.65888C42.3136 8.18898 41.7678 8.57726 41.3766 8.82329C41.5408 8.937 41.6416 9.00606 41.6797 9.03128L41.8591 9.16401L42.039 9.29633C42.1717 9.39723 42.3293 9.52045 42.5125 9.66559L42.768 9.86448L43.0426 10.082L45.6642 12.1739Z" fill="#484B52"/>
<path d="M29.6086 12.1738L30.7916 10.5459H32.9782C33.1676 10.5459 33.3442 10.5521 33.5083 10.5649C33.4517 10.4888 33.3504 10.3437 33.2052 10.1295L33.0349 9.88304L32.8645 9.64652L31.7286 7.97144L28.7568 12.1738H26.4375L30.4985 6.44728C30.8392 5.97424 31.2618 5.7373 31.7667 5.7373C32.2778 5.7373 32.6941 5.97424 33.0163 6.44728L36.9726 12.1738H29.6086Z" fill="#484B52"/>
<path d="M27.7978 5.84155L26.5296 7.48852H24.2673V12.1739H22.3078V7.48852H19.3359L20.6041 5.84155H27.7978Z" fill="#484B52"/>
</svg>
